<svg width="120" height="120" viewBox="0 0 120 120" fill="none" xmlns="http://www.w3.org/2000/svg">
<circle cx="60" cy="60" r="60" fill="#0F172A"/>
<path d="M38.3252 66.7953H32.8838L34.8813 65.28V79.1247L33.5037 77.1961L41.4248 78.9869V83.9462H19.9346V78.9869L26.5469 77.0583L25.0316 79.1247V40.4147L26.7536 42.55L19.9346 40.7591V35.7998L35.0879 35.4554H41.3559C45.1672 35.4554 48.2897 36.1213 50.7235 37.4529C53.1572 38.7387 54.948 40.5066 56.096 42.7566C57.2899 45.0066 57.8869 47.5552 57.8869 50.4022C57.8869 53.4787 57.1751 56.2798 55.7516 58.8054C54.374 61.285 52.2388 63.2366 49.3459 64.6601C46.4989 66.0836 42.8253 66.7953 38.3252 66.7953ZM39.7717 42.4811H33.366L34.8813 40.9657V61.2161L32.8838 59.7008H38.3941C41.4707 59.7008 43.8126 58.8743 45.4198 57.2212C47.0269 55.5681 47.8305 53.364 47.8305 50.6088C47.8305 48.0832 47.1417 46.1087 45.7642 44.6852C44.4325 43.2158 42.435 42.4811 39.7717 42.4811Z" fill="#F8FAFC"/>
<path d="M83.0957 84.7727C78.5956 84.7727 74.6465 83.8314 71.2485 81.9487C67.8505 80.066 65.2101 77.2879 63.3274 73.6143C61.4907 69.9408 60.5723 65.3948 60.5723 59.9763C60.5723 54.6497 61.4907 50.1037 63.3274 46.3383C65.2101 42.527 67.8964 39.6341 71.3863 37.6595C74.8761 35.6391 79.0777 34.6289 83.9911 34.6289C86.6544 34.6289 89.4096 34.9274 92.2566 35.5243C95.1495 36.1213 98.0654 37.0396 101.004 38.2795L100.315 50.6088H94.4607L92.8076 42.6188L94.3229 43.9964C92.7158 43.4454 91.0856 43.0091 89.4325 42.6877C87.7794 42.3204 86.2182 42.1367 84.7488 42.1367C81.9018 42.1367 79.4681 42.8025 77.4476 44.1342C75.4272 45.4658 73.8659 47.4404 72.7638 50.0578C71.7077 52.6752 71.1796 55.9354 71.1796 59.8386C71.1796 65.257 72.2817 69.5046 74.4858 72.5812C76.7359 75.6578 79.9961 77.1961 84.2666 77.1961C85.5524 77.1961 86.907 77.0583 88.3305 76.7828C89.754 76.4613 91.2234 76.0251 92.7387 75.4741L91.5678 77.5404V64.4535L93.152 66.1754L86.5396 64.8667V59.7697L105.688 59.4253V64.5912L99.7644 66.1754L100.729 64.4535V80.9155C97.5602 82.2013 94.4837 83.1656 91.4989 83.8084C88.5142 84.4513 85.7131 84.7727 83.0957 84.7727Z" fill="#94A3B8"/>
</svg>
