<svg width="412" height="340" viewBox="0 0 412 340" fill="none" xmlns="http://www.w3.org/2000/svg">
<rect width="4" height="4" fill="#334155"/>
<rect x="24" width="4" height="4" fill="#334155"/>
<rect x="48" width="4" height="4" fill="#334155"/>
<rect x="72" width="4" height="4" fill="#334155"/>
<rect x="96" width="4" height="4" fill="#334155"/>
<rect x="120" width="4" height="4" fill="#334155"/>
<rect x="144" width="4" height="4" fill="#334155"/>
<rect x="168" width="4" height="4" fill="#334155"/>
<rect x="192" width="4" height="4" fill="#334155"/>
<rect x="216" width="4" height="4" fill="#334155"/>
<rect x="240" width="4" height="4" fill="#334155"/>
<rect x="264" width="4" height="4" fill="#334155"/>
<rect x="288" width="4" height="4" fill="#334155"/>
<rect x="312" width="4" height="4" fill="#334155"/>
<rect x="336" width="4" height="4" fill="#334155"/>
<rect x="360" width="4" height="4" fill="#334155"/>
<rect x="384" width="4" height="4" fill="#334155"/>
<rect x="408" width="4" height="4" fill="#334155"/>
<rect y="24" width="4" height="4" fill="#334155"/>
<rect x="24" y="24" width="4" height="4" fill="#334155"/>
<rect x="48" y="24" width="4" height="4" fill="#334155"/>
<rect x="72" y="24" width="4" height="4" fill="#334155"/>
<rect x="96" y="24" width="4" height="4" fill="#334155"/>
<rect x="120" y="24" width="4" height="4" fill="#334155"/>
<rect x="144" y="24" width="4" height="4" fill="#334155"/>
<rect x="168" y="24" width="4" height="4" fill="#334155"/>
<rect x="192" y="24" width="4" height="4" fill="#334155"/>
<rect x="216" y="24" width="4" height="4" fill="#334155"/>
<rect x="240" y="24" width="4" height="4" fill="#334155"/>
<rect x="264" y="24" width="4" height="4" fill="#334155"/>
<rect x="288" y="24" width="4" height="4" fill="#334155"/>
<rect x="312" y="24" width="4" height="4" fill="#334155"/>
<rect x="336" y="24" width="4" height="4" fill="#334155"/>
<rect x="360" y="24" width="4" height="4" fill="#334155"/>
<rect x="384" y="24" width="4" height="4" fill="#334155"/>
<rect x="408" y="24" width="4" height="4" fill="#334155"/>
<rect y="48" width="4" height="4" fill="#334155"/>
<rect x="24" y="48" width="4" height="4" fill="#334155"/>
<rect x="48" y="48" width="4" height="4" fill="#334155"/>
<rect x="72" y="48" width="4" height="4" fill="#334155"/>
<rect x="96" y="48" width="4" height="4" fill="#334155"/>
<rect x="120" y="48" width="4" height="4" fill="#334155"/>
<rect x="144" y="48" width="4" height="4" fill="#334155"/>
<rect x="168" y="48" width="4" height="4" fill="#334155"/>
<rect x="192" y="48" width="4" height="4" fill="#334155"/>
<rect x="216" y="48" width="4" height="4" fill="#334155"/>
<rect x="240" y="48" width="4" height="4" fill="#334155"/>
<rect x="264" y="48" width="4" height="4" fill="#334155"/>
<rect x="288" y="48" width="4" height="4" fill="#334155"/>
<rect x="312" y="48" width="4" height="4" fill="#334155"/>
<rect x="336" y="48" width="4" height="4" fill="#334155"/>
<rect x="360" y="48" width="4" height="4" fill="#334155"/>
<rect x="384" y="48" width="4" height="4" fill="#334155"/>
<rect x="408" y="48" width="4" height="4" fill="#334155"/>
<rect y="72" width="4" height="4" fill="#334155"/>
<rect x="24" y="72" width="4" height="4" fill="#334155"/>
<rect x="48" y="72" width="4" height="4" fill="#334155"/>
<rect x="72" y="72" width="4" height="4" fill="#334155"/>
<rect x="96" y="72" width="4" height="4" fill="#334155"/>
<rect x="120" y="72" width="4" height="4" fill="#334155"/>
<rect x="144" y="72" width="4" height="4" fill="#334155"/>
<rect x="168" y="72" width="4" height="4" fill="#334155"/>
<rect x="192" y="72" width="4" height="4" fill="#334155"/>
<rect x="216" y="72" width="4" height="4" fill="#334155"/>
<rect x="240" y="72" width="4" height="4" fill="#334155"/>
<rect x="264" y="72" width="4" height="4" fill="#334155"/>
<rect x="288" y="72" width="4" height="4" fill="#334155"/>
<rect x="312" y="72" width="4" height="4" fill="#334155"/>
<rect x="336" y="72" width="4" height="4" fill="#334155"/>
<rect x="360" y="72" width="4" height="4" fill="#334155"/>
<rect x="384" y="72" width="4" height="4" fill="#334155"/>
<rect x="408" y="72" width="4" height="4" fill="#334155"/>
<rect y="96" width="4" height="4" fill="#334155"/>
<rect x="24" y="96" width="4" height="4" fill="#334155"/>
<rect x="48" y="96" width="4" height="4" fill="#334155"/>
<rect x="72" y="96" width="4" height="4" fill="#334155"/>
<rect x="96" y="96" width="4" height="4" fill="#334155"/>
<rect x="120" y="96" width="4" height="4" fill="#334155"/>
<rect x="144" y="96" width="4" height="4" fill="#334155"/>
<rect x="168" y="96" width="4" height="4" fill="#334155"/>
<rect x="192" y="96" width="4" height="4" fill="#334155"/>
<rect x="216" y="96" width="4" height="4" fill="#334155"/>
<rect x="240" y="96" width="4" height="4" fill="#334155"/>
<rect x="264" y="96" width="4" height="4" fill="#334155"/>
<rect x="288" y="96" width="4" height="4" fill="#334155"/>
<rect x="312" y="96" width="4" height="4" fill="#334155"/>
<rect x="336" y="96" width="4" height="4" fill="#334155"/>
<rect x="360" y="96" width="4" height="4" fill="#334155"/>
<rect x="384" y="96" width="4" height="4" fill="#334155"/>
<rect x="408" y="96" width="4" height="4" fill="#334155"/>
<rect y="120" width="4" height="4" fill="#334155"/>
<rect x="24" y="120" width="4" height="4" fill="#334155"/>
<rect x="48" y="120" width="4" height="4" fill="#334155"/>
<rect x="72" y="120" width="4" height="4" fill="#334155"/>
<rect x="96" y="120" width="4" height="4" fill="#334155"/>
<rect x="120" y="120" width="4" height="4" fill="#334155"/>
<rect x="144" y="120" width="4" height="4" fill="#334155"/>
<rect x="168" y="120" width="4" height="4" fill="#334155"/>
<rect x="192" y="120" width="4" height="4" fill="#334155"/>
<rect x="216" y="120" width="4" height="4" fill="#334155"/>
<rect x="240" y="120" width="4" height="4" fill="#334155"/>
<rect x="264" y="120" width="4" height="4" fill="#334155"/>
<rect x="288" y="120" width="4" height="4" fill="#334155"/>
<rect x="312" y="120" width="4" height="4" fill="#334155"/>
<rect x="336" y="120" width="4" height="4" fill="#334155"/>
<rect x="360" y="120" width="4" height="4" fill="#334155"/>
<rect x="384" y="120" width="4" height="4" fill="#334155"/>
<rect x="408" y="120" width="4" height="4" fill="#334155"/>
<rect y="144" width="4" height="4" fill="#334155"/>
<rect x="24" y="144" width="4" height="4" fill="#334155"/>
<rect x="48" y="144" width="4" height="4" fill="#334155"/>
<rect x="72" y="144" width="4" height="4" fill="#334155"/>
<rect x="96" y="144" width="4" height="4" fill="#334155"/>
<rect x="120" y="144" width="4" height="4" fill="#334155"/>
<rect x="144" y="144" width="4" height="4" fill="#334155"/>
<rect x="168" y="144" width="4" height="4" fill="#334155"/>
<rect x="192" y="144" width="4" height="4" fill="#334155"/>
<rect x="216" y="144" width="4" height="4" fill="#334155"/>
<rect x="240" y="144" width="4" height="4" fill="#334155"/>
<rect x="264" y="144" width="4" height="4" fill="#334155"/>
<rect x="288" y="144" width="4" height="4" fill="#334155"/>
<rect x="312" y="144" width="4" height="4" fill="#334155"/>
<rect x="336" y="144" width="4" height="4" fill="#334155"/>
<rect x="360" y="144" width="4" height="4" fill="#334155"/>
<rect x="384" y="144" width="4" height="4" fill="#334155"/>
<rect x="408" y="144" width="4" height="4" fill="#334155"/>
<rect y="168" width="4" height="4" fill="#334155"/>
<rect x="24" y="168" width="4" height="4" fill="#334155"/>
<rect x="48" y="168" width="4" height="4" fill="#334155"/>
<rect x="72" y="168" width="4" height="4" fill="#334155"/>
<rect x="96" y="168" width="4" height="4" fill="#334155"/>
<rect x="120" y="168" width="4" height="4" fill="#334155"/>
<rect x="144" y="168" width="4" height="4" fill="#334155"/>
<rect x="168" y="168" width="4" height="4" fill="#334155"/>
<rect x="192" y="168" width="4" height="4" fill="#334155"/>
<rect x="216" y="168" width="4" height="4" fill="#334155"/>
<rect x="240" y="168" width="4" height="4" fill="#334155"/>
<rect x="264" y="168" width="4" height="4" fill="#334155"/>
<rect x="288" y="168" width="4" height="4" fill="#334155"/>
<rect x="312" y="168" width="4" height="4" fill="#334155"/>
<rect x="336" y="168" width="4" height="4" fill="#334155"/>
<rect x="360" y="168" width="4" height="4" fill="#334155"/>
<rect x="384" y="168" width="4" height="4" fill="#334155"/>
<rect x="408" y="168" width="4" height="4" fill="#334155"/>
<rect y="192" width="4" height="4" fill="#334155"/>
<rect x="24" y="192" width="4" height="4" fill="#334155"/>
<rect x="48" y="192" width="4" height="4" fill="#334155"/>
<rect x="72" y="192" width="4" height="4" fill="#334155"/>
<rect x="96" y="192" width="4" height="4" fill="#334155"/>
<rect x="120" y="192" width="4" height="4" fill="#334155"/>
<rect x="144" y="192" width="4" height="4" fill="#334155"/>
<rect x="168" y="192" width="4" height="4" fill="#334155"/>
<rect x="192" y="192" width="4" height="4" fill="#334155"/>
<rect x="216" y="192" width="4" height="4" fill="#334155"/>
<rect x="240" y="192" width="4" height="4" fill="#334155"/>
<rect x="264" y="192" width="4" height="4" fill="#334155"/>
<rect x="288" y="192" width="4" height="4" fill="#334155"/>
<rect x="312" y="192" width="4" height="4" fill="#334155"/>
<rect x="336" y="192" width="4" height="4" fill="#334155"/>
<rect x="360" y="192" width="4" height="4" fill="#334155"/>
<rect x="384" y="192" width="4" height="4" fill="#334155"/>
<rect x="408" y="192" width="4" height="4" fill="#334155"/>
<rect y="216" width="4" height="4" fill="#334155"/>
<rect x="24" y="216" width="4" height="4" fill="#334155"/>
<rect x="48" y="216" width="4" height="4" fill="#334155"/>
<rect x="72" y="216" width="4" height="4" fill="#334155"/>
<rect x="96" y="216" width="4" height="4" fill="#334155"/>
<rect x="120" y="216" width="4" height="4" fill="#334155"/>
<rect x="144" y="216" width="4" height="4" fill="#334155"/>
<rect x="168" y="216" width="4" height="4" fill="#334155"/>
<rect x="192" y="216" width="4" height="4" fill="#334155"/>
<rect x="216" y="216" width="4" height="4" fill="#334155"/>
<rect x="240" y="216" width="4" height="4" fill="#334155"/>
<rect x="264" y="216" width="4" height="4" fill="#334155"/>
<rect x="288" y="216" width="4" height="4" fill="#334155"/>
<rect x="312" y="216" width="4" height="4" fill="#334155"/>
<rect x="336" y="216" width="4" height="4" fill="#334155"/>
<rect x="360" y="216" width="4" height="4" fill="#334155"/>
<rect x="384" y="216" width="4" height="4" fill="#334155"/>
<rect x="408" y="216" width="4" height="4" fill="#334155"/>
<rect y="240" width="4" height="4" fill="#334155"/>
<rect x="24" y="240" width="4" height="4" fill="#334155"/>
<rect x="48" y="240" width="4" height="4" fill="#334155"/>
<rect x="72" y="240" width="4" height="4" fill="#334155"/>
<rect x="96" y="240" width="4" height="4" fill="#334155"/>
<rect x="120" y="240" width="4" height="4" fill="#334155"/>
<rect x="144" y="240" width="4" height="4" fill="#334155"/>
<rect x="168" y="240" width="4" height="4" fill="#334155"/>
<rect x="192" y="240" width="4" height="4" fill="#334155"/>
<rect x="216" y="240" width="4" height="4" fill="#334155"/>
<rect x="240" y="240" width="4" height="4" fill="#334155"/>
<rect x="264" y="240" width="4" height="4" fill="#334155"/>
<rect x="288" y="240" width="4" height="4" fill="#334155"/>
<rect x="312" y="240" width="4" height="4" fill="#334155"/>
<rect x="336" y="240" width="4" height="4" fill="#334155"/>
<rect x="360" y="240" width="4" height="4" fill="#334155"/>
<rect x="384" y="240" width="4" height="4" fill="#334155"/>
<rect x="408" y="240" width="4" height="4" fill="#334155"/>
<rect y="264" width="4" height="4" fill="#334155"/>
<rect x="24" y="264" width="4" height="4" fill="#334155"/>
<rect x="48" y="264" width="4" height="4" fill="#334155"/>
<rect x="72" y="264" width="4" height="4" fill="#334155"/>
<rect x="96" y="264" width="4" height="4" fill="#334155"/>
<rect x="120" y="264" width="4" height="4" fill="#334155"/>
<rect x="144" y="264" width="4" height="4" fill="#334155"/>
<rect x="168" y="264" width="4" height="4" fill="#334155"/>
<rect x="192" y="264" width="4" height="4" fill="#334155"/>
<rect x="216" y="264" width="4" height="4" fill="#334155"/>
<rect x="240" y="264" width="4" height="4" fill="#334155"/>
<rect x="264" y="264" width="4" height="4" fill="#334155"/>
<rect x="288" y="264" width="4" height="4" fill="#334155"/>
<rect x="312" y="264" width="4" height="4" fill="#334155"/>
<rect x="336" y="264" width="4" height="4" fill="#334155"/>
<rect x="360" y="264" width="4" height="4" fill="#334155"/>
<rect x="384" y="264" width="4" height="4" fill="#334155"/>
<rect x="408" y="264" width="4" height="4" fill="#334155"/>
<rect y="288" width="4" height="4" fill="#334155"/>
<rect x="24" y="288" width="4" height="4" fill="#334155"/>
<rect x="48" y="288" width="4" height="4" fill="#334155"/>
<rect x="72" y="288" width="4" height="4" fill="#334155"/>
<rect x="96" y="288" width="4" height="4" fill="#334155"/>
<rect x="120" y="288" width="4" height="4" fill="#334155"/>
<rect x="144" y="288" width="4" height="4" fill="#334155"/>
<rect x="168" y="288" width="4" height="4" fill="#334155"/>
<rect x="192" y="288" width="4" height="4" fill="#334155"/>
<rect x="216" y="288" width="4" height="4" fill="#334155"/>
<rect x="240" y="288" width="4" height="4" fill="#334155"/>
<rect x="264" y="288" width="4" height="4" fill="#334155"/>
<rect x="288" y="288" width="4" height="4" fill="#334155"/>
<rect x="312" y="288" width="4" height="4" fill="#334155"/>
<rect x="336" y="288" width="4" height="4" fill="#334155"/>
<rect x="360" y="288" width="4" height="4" fill="#334155"/>
<rect x="384" y="288" width="4" height="4" fill="#334155"/>
<rect x="408" y="288" width="4" height="4" fill="#334155"/>
<rect y="312" width="4" height="4" fill="#334155"/>
<rect x="24" y="312" width="4" height="4" fill="#334155"/>
<rect x="48" y="312" width="4" height="4" fill="#334155"/>
<rect x="72" y="312" width="4" height="4" fill="#334155"/>
<rect x="96" y="312" width="4" height="4" fill="#334155"/>
<rect x="120" y="312" width="4" height="4" fill="#334155"/>
<rect x="144" y="312" width="4" height="4" fill="#334155"/>
<rect x="168" y="312" width="4" height="4" fill="#334155"/>
<rect x="192" y="312" width="4" height="4" fill="#334155"/>
<rect x="216" y="312" width="4" height="4" fill="#334155"/>
<rect x="240" y="312" width="4" height="4" fill="#334155"/>
<rect x="264" y="312" width="4" height="4" fill="#334155"/>
<rect x="288" y="312" width="4" height="4" fill="#334155"/>
<rect x="312" y="312" width="4" height="4" fill="#334155"/>
<rect x="336" y="312" width="4" height="4" fill="#334155"/>
<rect x="360" y="312" width="4" height="4" fill="#334155"/>
<rect x="384" y="312" width="4" height="4" fill="#334155"/>
<rect x="408" y="312" width="4" height="4" fill="#334155"/>
<rect y="336" width="4" height="4" fill="#334155"/>
<rect x="24" y="336" width="4" height="4" fill="#334155"/>
<rect x="48" y="336" width="4" height="4" fill="#334155"/>
<rect x="72" y="336" width="4" height="4" fill="#334155"/>
<rect x="96" y="336" width="4" height="4" fill="#334155"/>
<rect x="120" y="336" width="4" height="4" fill="#334155"/>
<rect x="144" y="336" width="4" height="4" fill="#334155"/>
<rect x="168" y="336" width="4" height="4" fill="#334155"/>
<rect x="192" y="336" width="4" height="4" fill="#334155"/>
<rect x="216" y="336" width="4" height="4" fill="#334155"/>
<rect x="240" y="336" width="4" height="4" fill="#334155"/>
<rect x="264" y="336" width="4" height="4" fill="#334155"/>
<rect x="288" y="336" width="4" height="4" fill="#334155"/>
<rect x="312" y="336" width="4" height="4" fill="#334155"/>
<rect x="336" y="336" width="4" height="4" fill="#334155"/>
<rect x="360" y="336" width="4" height="4" fill="#334155"/>
<rect x="384" y="336" width="4" height="4" fill="#334155"/>
<rect x="408" y="336" width="4" height="4" fill="#334155"/>
</svg>
