<svg width="320" height="73" viewBox="0 0 320 73" fill="none" xmlns="http://www.w3.org/2000/svg">
<path d="M9.072 35.588C9.72 35.684 10.356 35.828 10.98 36.02C11.628 36.188 12.204 36.392 12.708 36.632V38H0.72V36.632C1.176 36.368 1.656 36.152 2.16 35.984C2.688 35.816 3.192 35.684 3.672 35.588V15.212C3.12 15.116 2.592 14.984 2.088 14.816C1.584 14.624 1.128 14.408 0.72 14.168V12.8H5.256C6.216 12.8 7.308 12.752 8.532 12.656C9.78 12.56 10.92 12.512 11.952 12.512C13.224 12.512 14.46 12.644 15.66 12.908C16.884 13.148 17.964 13.568 18.9 14.168C19.86 14.768 20.628 15.572 21.204 16.58C21.78 17.564 22.068 18.8 22.068 20.288C22.068 21.704 21.78 22.928 21.204 23.96C20.652 24.992 19.908 25.844 18.972 26.516C18.036 27.188 16.956 27.692 15.732 28.028C14.508 28.34 13.248 28.496 11.952 28.496C11.832 28.496 11.64 28.496 11.376 28.496C11.112 28.496 10.824 28.496 10.512 28.496C10.224 28.472 9.936 28.46 9.648 28.46C9.384 28.436 9.192 28.412 9.072 28.388V35.588ZM11.016 14.852C10.536 14.852 10.152 14.876 9.864 14.924C9.6 14.948 9.336 14.996 9.072 15.068V26.012C9.288 26.084 9.612 26.132 10.044 26.156C10.476 26.156 10.824 26.156 11.088 26.156C11.736 26.156 12.36 26.048 12.96 25.832C13.56 25.616 14.088 25.28 14.544 24.824C15.024 24.368 15.408 23.78 15.696 23.06C15.984 22.34 16.128 21.476 16.128 20.468C16.128 18.548 15.66 17.132 14.724 16.22C13.788 15.308 12.552 14.852 11.016 14.852ZM23.7473 12.8H35.5553V14.168C35.0513 14.432 34.4873 14.66 33.8633 14.852C33.2633 15.02 32.6753 15.14 32.0993 15.212V35.66H39.0473L41.4593 29.216H42.9353C43.0313 29.768 43.1153 30.416 43.1873 31.16C43.2833 31.904 43.3553 32.684 43.4033 33.5C43.4513 34.316 43.4873 35.12 43.5113 35.912C43.5353 36.704 43.5353 37.4 43.5113 38H23.7473V36.632C24.2993 36.344 24.8153 36.116 25.2953 35.948C25.7993 35.78 26.2673 35.66 26.6993 35.588V15.212C25.5233 15.02 24.5393 14.672 23.7473 14.168V12.8ZM44.7165 25.4C44.7165 23.528 44.9805 21.8 45.5085 20.216C46.0365 18.608 46.8165 17.228 47.8485 16.076C48.8805 14.9 50.1525 13.988 51.6645 13.34C53.1765 12.692 54.9165 12.368 56.8845 12.368C58.8525 12.368 60.5925 12.692 62.1045 13.34C63.6165 13.988 64.8765 14.9 65.8845 16.076C66.9165 17.228 67.6965 18.608 68.2245 20.216C68.7525 21.8 69.0165 23.528 69.0165 25.4C69.0165 27.272 68.7525 29.012 68.2245 30.62C67.6965 32.204 66.9165 33.584 65.8845 34.76C64.8765 35.912 63.6165 36.812 62.1045 37.46C60.5925 38.108 58.8525 38.432 56.8845 38.432C54.9165 38.432 53.1765 38.108 51.6645 37.46C50.1525 36.812 48.8805 35.912 47.8485 34.76C46.8165 33.584 46.0365 32.204 45.5085 30.62C44.9805 29.012 44.7165 27.272 44.7165 25.4ZM50.8365 25.4C50.8365 26.936 50.9565 28.364 51.1965 29.684C51.4365 30.98 51.8085 32.108 52.3125 33.068C52.8405 34.004 53.5005 34.748 54.2925 35.3C55.1085 35.828 56.0805 36.092 57.2085 36.092C58.2405 36.092 59.1165 35.828 59.8365 35.3C60.5565 34.748 61.1445 34.004 61.6005 33.068C62.0565 32.108 62.3805 30.98 62.5725 29.684C62.7885 28.364 62.8965 26.936 62.8965 25.4C62.8965 23.864 62.7765 22.448 62.5365 21.152C62.3205 19.832 61.9605 18.704 61.4565 17.768C60.9765 16.808 60.3285 16.064 59.5125 15.536C58.7205 14.984 57.7485 14.708 56.5965 14.708C55.4925 14.708 54.5685 14.984 53.8245 15.536C53.0805 16.064 52.4805 16.808 52.0245 17.768C51.5925 18.704 51.2805 19.832 51.0885 21.152C50.9205 22.448 50.8365 23.864 50.8365 25.4ZM76.1051 35.012C76.3691 35.276 76.7411 35.528 77.2211 35.768C77.7011 35.984 78.3371 36.092 79.1291 36.092C80.4491 36.092 81.5411 35.756 82.4051 35.084C83.2931 34.388 83.7371 33.428 83.7371 32.204C83.7371 31.316 83.4491 30.572 82.8731 29.972C82.3211 29.372 81.6131 28.82 80.7491 28.316C79.8851 27.812 78.9611 27.32 77.9771 26.84C76.9931 26.336 76.0691 25.748 75.2051 25.076C74.3411 24.404 73.6211 23.612 73.0451 22.7C72.4931 21.764 72.2171 20.612 72.2171 19.244C72.2171 18.068 72.4331 17.048 72.8651 16.184C73.2971 15.32 73.8851 14.612 74.6291 14.06C75.3971 13.484 76.2971 13.064 77.3291 12.8C78.3611 12.512 79.4771 12.368 80.6771 12.368C82.1411 12.368 83.4971 12.476 84.7451 12.692C86.0171 12.884 87.1571 13.196 88.1651 13.628C88.1411 14.108 88.0931 14.66 88.0211 15.284C87.9731 15.908 87.9011 16.532 87.8051 17.156C87.7091 17.756 87.6011 18.332 87.4811 18.884C87.3851 19.412 87.2891 19.856 87.1931 20.216H85.7171L84.0611 15.284C83.7731 15.14 83.3411 15.008 82.7651 14.888C82.2131 14.768 81.6371 14.708 81.0371 14.708C80.0291 14.708 79.1771 14.972 78.4811 15.5C77.7851 16.028 77.4371 16.796 77.4371 17.804C77.4371 18.716 77.7251 19.496 78.3011 20.144C78.8771 20.768 79.5971 21.344 80.4611 21.872C81.3251 22.4 82.2611 22.928 83.2691 23.456C84.3011 23.96 85.2491 24.548 86.1131 25.22C86.9771 25.892 87.6971 26.684 88.2731 27.596C88.8491 28.484 89.1371 29.588 89.1371 30.908C89.1371 33.308 88.3211 35.168 86.6891 36.488C85.0811 37.784 82.7051 38.432 79.5611 38.432C78.7931 38.432 78.0131 38.384 77.2211 38.288C76.4531 38.192 75.7211 38.06 75.0251 37.892C74.3291 37.724 73.7051 37.544 73.1531 37.352C72.6251 37.16 72.2291 36.956 71.9651 36.74C71.9891 36.188 72.0491 35.6 72.1451 34.976C72.2411 34.328 72.3371 33.692 72.4331 33.068C72.5531 32.42 72.6731 31.808 72.7931 31.232C72.9131 30.656 73.0331 30.152 73.1531 29.72H74.6291L76.1051 35.012ZM104.891 12.8H114.539V14.168C114.131 14.432 113.663 14.66 113.135 14.852C112.607 15.02 112.127 15.14 111.695 15.212L104.855 23.888C105.407 24.656 106.055 25.532 106.799 26.516C107.543 27.476 108.335 28.484 109.175 29.54C110.015 30.572 110.879 31.628 111.767 32.708C112.655 33.764 113.519 34.772 114.359 35.732L116.087 36.776V38H109.823L108.383 36.992C107.807 36.272 107.195 35.48 106.547 34.616C105.923 33.728 105.299 32.816 104.675 31.88C104.051 30.92 103.439 29.96 102.839 29C102.239 28.04 101.675 27.104 101.147 26.192H99.5993V35.588C100.127 35.684 100.607 35.828 101.039 36.02C101.471 36.212 101.843 36.416 102.155 36.632V38H91.2473V36.632C91.7273 36.392 92.2193 36.188 92.7233 36.02C93.2273 35.828 93.7193 35.684 94.1993 35.588V15.212C93.6473 15.14 93.1073 15.008 92.5793 14.816C92.0753 14.624 91.6313 14.408 91.2473 14.168V12.8H102.155V14.168C101.843 14.36 101.459 14.552 101.003 14.744C100.571 14.936 100.103 15.092 99.5993 15.212V24.356L101.723 23.852L107.519 15.212C107.039 15.116 106.559 14.972 106.079 14.78C105.623 14.564 105.227 14.36 104.891 14.168V12.8ZM135.742 12.8C135.694 13.88 135.61 14.996 135.49 16.148C135.37 17.3 135.214 18.38 135.022 19.388H133.546L131.89 15.14H125.158V23.96H129.55L131.134 21.188H132.286C132.406 22.364 132.466 23.672 132.466 25.112C132.466 26.552 132.406 27.896 132.286 29.144H131.134L129.55 26.3H125.158V35.66H132.178L134.086 31.088H135.562C135.658 31.544 135.754 32.06 135.85 32.636C135.946 33.212 136.018 33.812 136.066 34.436C136.138 35.036 136.186 35.648 136.21 36.272C136.258 36.896 136.282 37.472 136.282 38H116.806V36.632C117.214 36.416 117.67 36.212 118.174 36.02C118.678 35.828 119.206 35.684 119.758 35.588V15.212C119.278 15.116 118.762 14.984 118.21 14.816C117.682 14.624 117.214 14.408 116.806 14.168V12.8H135.742ZM146.885 35.588C147.437 35.708 147.929 35.864 148.361 36.056C148.793 36.248 149.213 36.44 149.621 36.632V38H138.533V36.632C139.061 36.344 139.565 36.128 140.045 35.984C140.525 35.816 141.005 35.684 141.485 35.588V15.212C140.285 14.948 139.301 14.6 138.533 14.168V12.8H142.349C142.829 12.8 143.369 12.788 143.969 12.764C144.593 12.74 145.241 12.716 145.913 12.692C146.585 12.644 147.269 12.608 147.965 12.584C148.661 12.536 149.333 12.512 149.981 12.512C151.301 12.512 152.513 12.668 153.617 12.98C154.745 13.268 155.705 13.712 156.497 14.312C157.313 14.912 157.937 15.668 158.369 16.58C158.825 17.468 159.053 18.512 159.053 19.712C159.053 21.44 158.633 22.856 157.793 23.96C156.953 25.064 155.801 25.892 154.337 26.444C155.297 27.956 156.317 29.504 157.397 31.088C158.477 32.648 159.617 34.16 160.817 35.624L162.545 36.776V38H156.533L154.985 36.812C153.881 35.492 152.897 33.968 152.033 32.24C151.193 30.488 150.449 28.772 149.801 27.092H146.885V35.588ZM148.685 14.852C147.941 14.852 147.341 14.924 146.885 15.068V25.112H149.009C150.233 25.112 151.277 24.68 152.141 23.816C153.005 22.928 153.437 21.62 153.437 19.892C153.437 19.004 153.317 18.248 153.077 17.624C152.837 16.976 152.501 16.448 152.069 16.04C151.637 15.632 151.133 15.332 150.557 15.14C149.981 14.948 149.357 14.852 148.685 14.852Z" fill="#F1F5F9"/>
<path d="M195.513 36.416C195.033 36.656 194.445 36.896 193.749 37.136C193.053 37.376 192.321 37.592 191.553 37.784C190.785 37.976 190.017 38.132 189.249 38.252C188.481 38.372 187.797 38.432 187.197 38.432C185.133 38.432 183.285 38.168 181.653 37.64C180.045 37.088 178.665 36.272 177.513 35.192C176.385 34.088 175.521 32.72 174.921 31.088C174.321 29.456 174.021 27.56 174.021 25.4C174.021 23.048 174.381 21.056 175.101 19.424C175.845 17.768 176.817 16.424 178.017 15.392C179.241 14.336 180.621 13.568 182.157 13.088C183.693 12.608 185.265 12.368 186.873 12.368C188.457 12.368 189.945 12.476 191.337 12.692C192.729 12.908 193.833 13.22 194.649 13.628C194.649 13.988 194.625 14.456 194.577 15.032C194.553 15.584 194.505 16.184 194.433 16.832C194.361 17.48 194.265 18.128 194.145 18.776C194.049 19.424 193.929 20.012 193.785 20.54H192.309L190.293 15.068C190.029 14.948 189.633 14.864 189.105 14.816C188.577 14.744 188.049 14.708 187.521 14.708C186.537 14.708 185.589 14.9 184.677 15.284C183.765 15.668 182.961 16.292 182.265 17.156C181.569 17.996 181.017 19.1 180.609 20.468C180.201 21.812 179.997 23.456 179.997 25.4C179.997 26.984 180.177 28.436 180.537 29.756C180.921 31.052 181.449 32.168 182.121 33.104C182.793 34.04 183.597 34.772 184.533 35.3C185.469 35.828 186.501 36.092 187.629 36.092C187.989 36.092 188.361 36.068 188.745 36.02C189.129 35.948 189.489 35.864 189.825 35.768C190.161 35.672 190.449 35.564 190.689 35.444C190.953 35.324 191.133 35.216 191.229 35.12V28.352C190.605 28.304 190.017 28.184 189.465 27.992C188.913 27.8 188.397 27.572 187.917 27.308V25.94H197.745V27.308C197.529 27.524 197.241 27.728 196.881 27.92C196.521 28.088 196.065 28.232 195.513 28.352V36.416ZM207.213 35.588C207.765 35.708 208.257 35.864 208.689 36.056C209.121 36.248 209.541 36.44 209.949 36.632V38H198.861V36.632C199.389 36.344 199.893 36.128 200.373 35.984C200.853 35.816 201.333 35.684 201.813 35.588V15.212C200.613 14.948 199.629 14.6 198.861 14.168V12.8H202.677C203.157 12.8 203.697 12.788 204.297 12.764C204.921 12.74 205.569 12.716 206.241 12.692C206.913 12.644 207.597 12.608 208.293 12.584C208.989 12.536 209.661 12.512 210.309 12.512C211.629 12.512 212.841 12.668 213.945 12.98C215.073 13.268 216.033 13.712 216.825 14.312C217.641 14.912 218.265 15.668 218.697 16.58C219.153 17.468 219.381 18.512 219.381 19.712C219.381 21.44 218.961 22.856 218.121 23.96C217.281 25.064 216.129 25.892 214.665 26.444C215.625 27.956 216.645 29.504 217.725 31.088C218.805 32.648 219.945 34.16 221.145 35.624L222.873 36.776V38H216.861L215.313 36.812C214.209 35.492 213.225 33.968 212.361 32.24C211.521 30.488 210.777 28.772 210.129 27.092H207.213V35.588ZM209.013 14.852C208.269 14.852 207.669 14.924 207.213 15.068V25.112H209.337C210.561 25.112 211.605 24.68 212.469 23.816C213.333 22.928 213.765 21.62 213.765 19.892C213.765 19.004 213.645 18.248 213.405 17.624C213.165 16.976 212.829 16.448 212.397 16.04C211.965 15.632 211.461 15.332 210.885 15.14C210.309 14.948 209.685 14.852 209.013 14.852ZM223.24 25.4C223.24 23.528 223.504 21.8 224.032 20.216C224.56 18.608 225.34 17.228 226.372 16.076C227.404 14.9 228.676 13.988 230.188 13.34C231.7 12.692 233.44 12.368 235.408 12.368C237.376 12.368 239.116 12.692 240.628 13.34C242.14 13.988 243.4 14.9 244.408 16.076C245.44 17.228 246.22 18.608 246.748 20.216C247.276 21.8 247.54 23.528 247.54 25.4C247.54 27.272 247.276 29.012 246.748 30.62C246.22 32.204 245.44 33.584 244.408 34.76C243.4 35.912 242.14 36.812 240.628 37.46C239.116 38.108 237.376 38.432 235.408 38.432C233.44 38.432 231.7 38.108 230.188 37.46C228.676 36.812 227.404 35.912 226.372 34.76C225.34 33.584 224.56 32.204 224.032 30.62C223.504 29.012 223.24 27.272 223.24 25.4ZM229.36 25.4C229.36 26.936 229.48 28.364 229.72 29.684C229.96 30.98 230.332 32.108 230.836 33.068C231.364 34.004 232.024 34.748 232.816 35.3C233.632 35.828 234.604 36.092 235.732 36.092C236.764 36.092 237.64 35.828 238.36 35.3C239.08 34.748 239.668 34.004 240.124 33.068C240.58 32.108 240.904 30.98 241.096 29.684C241.312 28.364 241.42 26.936 241.42 25.4C241.42 23.864 241.3 22.448 241.06 21.152C240.844 19.832 240.484 18.704 239.98 17.768C239.5 16.808 238.852 16.064 238.036 15.536C237.244 14.984 236.272 14.708 235.12 14.708C234.016 14.708 233.092 14.984 232.348 15.536C231.604 16.064 231.004 16.808 230.548 17.768C230.116 18.704 229.804 19.832 229.612 21.152C229.444 22.448 229.36 23.864 229.36 25.4ZM249.229 12.8H260.317V14.168C259.525 14.672 258.613 15.02 257.581 15.212V29.072C257.581 30.248 257.713 31.232 257.977 32.024C258.241 32.816 258.625 33.464 259.129 33.968C259.633 34.448 260.233 34.796 260.929 35.012C261.649 35.228 262.453 35.336 263.341 35.336C264.133 35.336 264.853 35.228 265.501 35.012C266.173 34.772 266.749 34.4 267.229 33.896C267.733 33.392 268.117 32.732 268.381 31.916C268.645 31.1 268.777 30.092 268.777 28.892V15.392C268.225 15.272 267.649 15.104 267.049 14.888C266.473 14.672 265.993 14.432 265.609 14.168V12.8H274.537V14.168C274.105 14.48 273.625 14.732 273.097 14.924C272.569 15.116 272.053 15.272 271.549 15.392V28.928C271.549 32 270.733 34.34 269.101 35.948C267.493 37.532 265.213 38.324 262.261 38.324C259.045 38.324 256.561 37.604 254.809 36.164C253.057 34.724 252.181 32.42 252.181 29.252V15.212C251.701 15.14 251.197 15.02 250.669 14.852C250.141 14.66 249.661 14.432 249.229 14.168V12.8ZM283.783 35.588C284.431 35.684 285.067 35.828 285.691 36.02C286.339 36.188 286.915 36.392 287.419 36.632V38H275.431V36.632C275.887 36.368 276.367 36.152 276.871 35.984C277.399 35.816 277.903 35.684 278.383 35.588V15.212C277.831 15.116 277.303 14.984 276.799 14.816C276.295 14.624 275.839 14.408 275.431 14.168V12.8H279.967C280.927 12.8 282.019 12.752 283.243 12.656C284.491 12.56 285.631 12.512 286.663 12.512C287.935 12.512 289.171 12.644 290.371 12.908C291.595 13.148 292.675 13.568 293.611 14.168C294.571 14.768 295.339 15.572 295.915 16.58C296.491 17.564 296.779 18.8 296.779 20.288C296.779 21.704 296.491 22.928 295.915 23.96C295.363 24.992 294.619 25.844 293.683 26.516C292.747 27.188 291.667 27.692 290.443 28.028C289.219 28.34 287.959 28.496 286.663 28.496C286.543 28.496 286.351 28.496 286.087 28.496C285.823 28.496 285.535 28.496 285.223 28.496C284.935 28.472 284.647 28.46 284.359 28.46C284.095 28.436 283.903 28.412 283.783 28.388V35.588ZM285.727 14.852C285.247 14.852 284.863 14.876 284.575 14.924C284.311 14.948 284.047 14.996 283.783 15.068V26.012C283.999 26.084 284.323 26.132 284.755 26.156C285.187 26.156 285.535 26.156 285.799 26.156C286.447 26.156 287.071 26.048 287.671 25.832C288.271 25.616 288.799 25.28 289.255 24.824C289.735 24.368 290.119 23.78 290.407 23.06C290.695 22.34 290.839 21.476 290.839 20.468C290.839 18.548 290.371 17.132 289.435 16.22C288.499 15.308 287.263 14.852 285.727 14.852ZM317.394 12.8C317.346 13.88 317.262 14.996 317.142 16.148C317.022 17.3 316.866 18.38 316.674 19.388H315.198L313.542 15.14H306.81V23.96H311.202L312.786 21.188H313.938C314.058 22.364 314.118 23.672 314.118 25.112C314.118 26.552 314.058 27.896 313.938 29.144H312.786L311.202 26.3H306.81V35.66H313.83L315.738 31.088H317.214C317.31 31.544 317.406 32.06 317.502 32.636C317.598 33.212 317.67 33.812 317.718 34.436C317.79 35.036 317.838 35.648 317.862 36.272C317.91 36.896 317.934 37.472 317.934 38H298.458V36.632C298.866 36.416 299.322 36.212 299.826 36.02C300.33 35.828 300.858 35.684 301.41 35.588V15.212C300.93 15.116 300.414 14.984 299.862 14.816C299.334 14.624 298.866 14.408 298.458 14.168V12.8H317.394Z" fill="#CBD5E1"/>
<path d="M3.36 59.1H5.84C5.94667 57.06 6.46 55.4933 7.38 54.4C8.3 53.3067 9.61333 52.76 11.32 52.76C12.2933 52.76 13.1267 52.9333 13.82 53.28C14.5133 53.6267 15.0733 54.12 15.5 54.76C15.9267 55.3867 16.24 56.1467 16.44 57.04C16.64 57.92 16.74 58.9067 16.74 60C16.74 62.3333 16.2933 64.1267 15.4 65.38C14.5067 66.62 13.1467 67.24 11.32 67.24C10.4 67.24 9.6 67.0867 8.92 66.78C8.24 66.46 7.67333 66.0133 7.22 65.44C6.78 64.8533 6.44667 64.1533 6.22 63.34C5.99333 62.5133 5.86 61.5933 5.82 60.58H3.36V67H1.7V53H3.36V59.1ZM7.58 60C7.58 60.7733 7.64667 61.5067 7.78 62.2C7.91333 62.8933 8.12667 63.5067 8.42 64.04C8.71333 64.56 9.09333 64.98 9.56 65.3C10.04 65.6067 10.6267 65.76 11.32 65.76C12.56 65.76 13.48 65.2933 14.08 64.36C14.68 63.4267 14.98 61.9733 14.98 60C14.98 59.24 14.92 58.5133 14.8 57.82C14.68 57.1133 14.4733 56.5 14.18 55.98C13.9 55.4467 13.5267 55.0267 13.06 54.72C12.5933 54.4 12.0133 54.24 11.32 54.24C10.08 54.24 9.14667 54.7133 8.52 55.66C7.89333 56.5933 7.58 58.04 7.58 60ZM23.1516 53.14C23.6582 53.02 24.2049 52.94 24.7916 52.9C25.3782 52.86 25.9582 52.84 26.5316 52.84C27.1449 52.84 27.7649 52.9 28.3916 53.02C29.0316 53.14 29.6116 53.36 30.1316 53.68C30.6516 54 31.0716 54.44 31.3916 55C31.7249 55.56 31.8916 56.2733 31.8916 57.14C31.8916 57.9933 31.7382 58.7133 31.4316 59.3C31.1249 59.8867 30.7182 60.3667 30.2116 60.74C29.7049 61.1 29.1249 61.36 28.4716 61.52C27.8182 61.68 27.1449 61.76 26.4516 61.76C26.3849 61.76 26.2716 61.76 26.1116 61.76C25.9649 61.76 25.8049 61.76 25.6316 61.76C25.4716 61.7467 25.3116 61.7333 25.1516 61.72C24.9916 61.7067 24.8782 61.6933 24.8116 61.68V67H23.1516V53.14ZM26.5716 54.28C26.2249 54.28 25.8916 54.2867 25.5716 54.3C25.2516 54.3133 24.9982 54.3467 24.8116 54.4V60.2C24.8782 60.2267 24.9849 60.2467 25.1316 60.26C25.2782 60.26 25.4316 60.2667 25.5916 60.28C25.7516 60.28 25.9049 60.28 26.0516 60.28C26.1982 60.28 26.3049 60.28 26.3716 60.28C26.8249 60.28 27.2716 60.24 27.7116 60.16C28.1649 60.0667 28.5716 59.9067 28.9316 59.68C29.2916 59.4533 29.5782 59.1333 29.7916 58.72C30.0182 58.3067 30.1316 57.78 30.1316 57.14C30.1316 56.5933 30.0249 56.14 29.8116 55.78C29.6116 55.4067 29.3382 55.1133 28.9916 54.9C28.6582 54.6733 28.2782 54.5133 27.8516 54.42C27.4249 54.3267 26.9982 54.28 26.5716 54.28ZM46.4834 57.52L46.6034 55.92H46.5234L45.6634 57.56L38.9034 67H37.9234V53H39.5834V62.6L39.4434 64.18H39.5234L40.4034 62.54L47.1634 53H48.1434V67H46.4834V57.52ZM66.2567 69.58H65.1167L64.8167 67H54.9967L54.6967 69.58H53.5367V65.52H54.9567C55.0634 65.3733 55.2234 65.0333 55.4367 64.5C55.6634 63.9533 55.8834 63.18 56.0967 62.18C56.3234 61.1667 56.5234 59.9067 56.6967 58.4C56.8701 56.88 56.9567 55.08 56.9567 53H64.4367V65.52H66.2567V69.58ZM62.7767 65.52V54.48H58.5167C58.4767 55.9467 58.3967 57.2667 58.2767 58.44C58.1701 59.6133 58.0367 60.6533 57.8767 61.56C57.7167 62.4533 57.5367 63.2267 57.3367 63.88C57.1367 64.5333 56.9301 65.08 56.7167 65.52H62.7767ZM80.6756 57.52L80.7956 55.92H80.7156L79.8556 57.56L73.0956 67H72.1156V53H73.7756V62.6L73.6356 64.18H73.7156L74.5956 62.54L81.3556 53H82.3356V67H80.6756V57.52ZM90.7889 53V57.64C90.7889 59.4667 91.6156 60.38 93.2689 60.38C93.8956 60.38 94.4822 60.3 95.0289 60.14C95.5756 59.9667 96.0222 59.74 96.3689 59.46V53H98.0289V67H96.3689V60.96C96.0089 61.16 95.5356 61.36 94.9489 61.56C94.3622 61.76 93.6889 61.86 92.9289 61.86C92.3689 61.86 91.8556 61.8 91.3889 61.68C90.9222 61.5467 90.5222 61.3333 90.1889 61.04C89.8556 60.7333 89.5956 60.3267 89.4089 59.82C89.2222 59.3133 89.1289 58.6867 89.1289 57.94V53H90.7889ZM105.038 53H112.658V54.48H106.698V59.06H112.158V60.54H106.698V65.52H112.758V67H105.038V53ZM128.321 66.42C127.921 66.7267 127.414 66.94 126.801 67.06C126.188 67.18 125.534 67.24 124.841 67.24C124.001 67.24 123.214 67.1 122.481 66.82C121.748 66.5267 121.108 66.0867 120.561 65.5C120.014 64.9133 119.581 64.1667 119.261 63.26C118.941 62.34 118.781 61.2533 118.781 60C118.781 58.6933 118.954 57.5867 119.301 56.68C119.661 55.76 120.128 55.0133 120.701 54.44C121.288 53.8533 121.941 53.4267 122.661 53.16C123.381 52.8933 124.114 52.76 124.861 52.76C125.661 52.76 126.314 52.8067 126.821 52.9C127.328 52.98 127.761 53.0933 128.121 53.24L127.721 54.7C127.081 54.3933 126.168 54.24 124.981 54.24C124.434 54.24 123.894 54.34 123.361 54.54C122.828 54.74 122.348 55.0667 121.921 55.52C121.508 55.9733 121.174 56.5667 120.921 57.3C120.668 58.0333 120.541 58.9333 120.541 60C120.541 60.96 120.661 61.8 120.901 62.52C121.141 63.24 121.468 63.84 121.881 64.32C122.308 64.8 122.801 65.16 123.361 65.4C123.934 65.64 124.554 65.76 125.221 65.76C125.821 65.76 126.341 65.7 126.781 65.58C127.234 65.46 127.614 65.3067 127.921 65.12L128.321 66.42ZM136.987 60.52H136.047V67H134.387V53H136.047V59.52L136.947 59.24L141.647 53H143.567L138.887 59.02L138.047 59.68L139.067 60.48L144.187 67H142.087L136.987 60.52ZM156.854 63.12H151.694L150.294 67H148.654L153.954 52.78H154.714L160.034 67H158.294L156.854 63.12ZM152.234 61.68H156.354L154.794 57.42L154.294 55.3H154.274L153.774 57.46L152.234 61.68ZM173.473 67H171.813V60.9L169.753 61.34L166.273 67H164.313L167.433 62.02L168.653 61.16C168.173 61.0533 167.726 60.8933 167.313 60.68C166.913 60.4533 166.56 60.1733 166.253 59.84C165.96 59.4933 165.726 59.0933 165.553 58.64C165.393 58.1867 165.313 57.6667 165.313 57.08C165.313 56.2667 165.446 55.5933 165.713 55.06C165.993 54.5133 166.366 54.08 166.833 53.76C167.313 53.4267 167.866 53.1933 168.493 53.06C169.133 52.9133 169.806 52.84 170.513 52.84C170.966 52.84 171.446 52.86 171.953 52.9C172.473 52.94 172.98 53.02 173.473 53.14V67ZM170.433 54.28C169.993 54.28 169.573 54.3267 169.173 54.42C168.773 54.5 168.413 54.6467 168.093 54.86C167.786 55.0733 167.54 55.36 167.353 55.72C167.166 56.08 167.073 56.5333 167.073 57.08C167.073 57.5867 167.16 58.02 167.333 58.38C167.52 58.74 167.766 59.04 168.073 59.28C168.38 59.5067 168.733 59.6733 169.133 59.78C169.546 59.8867 169.986 59.94 170.453 59.94H171.813V54.4C171.626 54.36 171.433 54.3333 171.233 54.32C171.033 54.2933 170.766 54.28 170.433 54.28ZM192.012 60.52H191.072V67H189.412V53H191.072V59.52L191.972 59.24L196.672 53H198.592L193.912 59.02L193.072 59.68L194.092 60.48L199.212 67H197.112L192.012 60.52ZM204.248 60C204.248 57.6667 204.741 55.88 205.728 54.64C206.715 53.3867 208.121 52.76 209.948 52.76C210.935 52.76 211.788 52.9333 212.508 53.28C213.228 53.6267 213.821 54.12 214.288 54.76C214.768 55.3867 215.121 56.1467 215.348 57.04C215.575 57.92 215.688 58.9067 215.688 60C215.688 62.3333 215.188 64.1267 214.188 65.38C213.201 66.62 211.788 67.24 209.948 67.24C208.975 67.24 208.128 67.0667 207.408 66.72C206.701 66.3733 206.108 65.8867 205.628 65.26C205.161 64.62 204.815 63.86 204.588 62.98C204.361 62.0867 204.248 61.0933 204.248 60ZM206.008 60C206.008 60.7733 206.081 61.5067 206.228 62.2C206.388 62.8933 206.628 63.5067 206.948 64.04C207.268 64.56 207.675 64.98 208.168 65.3C208.675 65.6067 209.268 65.76 209.948 65.76C211.188 65.76 212.161 65.2933 212.868 64.36C213.575 63.4133 213.928 61.96 213.928 60C213.928 59.24 213.848 58.5133 213.688 57.82C213.541 57.1133 213.301 56.5 212.968 55.98C212.648 55.4467 212.235 55.0267 211.728 54.72C211.235 54.4 210.641 54.24 209.948 54.24C208.721 54.24 207.755 54.7133 207.048 55.66C206.355 56.5933 206.008 58.04 206.008 60ZM232.86 57.6L233.06 55.5H232.96L232.2 57.42L228.56 63.74H228.06L224.2 57.4L223.48 55.5H223.38L223.66 57.58V67H222.1V53H223.34L227.72 60.16L228.38 61.72H228.42L229.04 60.12L233.22 53H234.52V67H232.86V57.6ZM249.64 54.48H243.18V67H241.52V53H251.3V67H249.64V54.48ZM264.964 63.12H259.804L258.404 67H256.764L262.064 52.78H262.824L268.144 67H266.404L264.964 63.12ZM260.344 61.68H264.464L262.904 57.42L262.404 55.3H262.384L261.884 57.46L260.344 61.68ZM281.983 60.58H275.263V67H273.603V53H275.263V59.1H281.983V53H283.643V67H281.983V60.58ZM299.201 57.52L299.321 55.92H299.241L298.381 57.56L291.621 67H290.641V53H292.301V62.6L292.161 64.18H292.241L293.121 62.54L299.881 53H300.861V67H299.201V57.52ZM315.834 67H314.174V60.9L312.114 61.34L308.634 67H306.674L309.794 62.02L311.014 61.16C310.534 61.0533 310.087 60.8933 309.674 60.68C309.274 60.4533 308.921 60.1733 308.614 59.84C308.321 59.4933 308.087 59.0933 307.914 58.64C307.754 58.1867 307.674 57.6667 307.674 57.08C307.674 56.2667 307.807 55.5933 308.074 55.06C308.354 54.5133 308.727 54.08 309.194 53.76C309.674 53.4267 310.227 53.1933 310.854 53.06C311.494 52.9133 312.167 52.84 312.874 52.84C313.327 52.84 313.807 52.86 314.314 52.9C314.834 52.94 315.341 53.02 315.834 53.14V67ZM312.794 54.28C312.354 54.28 311.934 54.3267 311.534 54.42C311.134 54.5 310.774 54.6467 310.454 54.86C310.147 55.0733 309.901 55.36 309.714 55.72C309.527 56.08 309.434 56.5333 309.434 57.08C309.434 57.5867 309.521 58.02 309.694 58.38C309.881 58.74 310.127 59.04 310.434 59.28C310.741 59.5067 311.094 59.6733 311.494 59.78C311.907 59.8867 312.347 59.94 312.814 59.94H314.174V54.4C313.987 54.36 313.794 54.3333 313.594 54.32C313.394 54.2933 313.127 54.28 312.794 54.28Z" fill="#CBD5E1"/>
</svg>
