<svg width="600" height="603" viewBox="0 0 600 603" fill="none" xmlns="http://www.w3.org/2000/svg">
<g clip-path="url(#clip0_163_109)">
<path d="M512.566 87.6283C456.162 31.1533 381.162 0.0344567 301.255 0C136.594 0 2.59331 134.036 2.52739 298.784C2.50821 351.447 16.2603 402.853 42.3993 448.167L0.0194092 603L158.378 561.452C202.009 585.261 251.135 597.806 301.127 597.827H301.254H301.255C465.89 597.827 599.911 463.767 599.981 299.026C600.008 219.181 568.962 144.107 512.566 87.6283V87.6283ZM301.255 547.361H301.158C256.598 547.337 212.901 535.367 174.786 512.737L165.715 507.357L71.7419 532.01L96.8316 440.367L90.9217 430.972C66.0657 391.427 52.9438 345.728 52.9625 298.804C53.0171 161.87 164.394 50.4677 301.349 50.4677C367.67 50.4953 430.005 76.3614 476.885 123.302C523.763 170.242 549.561 232.642 549.541 299.005C549.483 435.944 438.103 547.361 301.255 547.361V547.361Z" fill="#94A3B8"/>
<path d="M13.7327 585.82L54.1767 438.06C29.2253 394.816 16.1039 345.754 16.1196 295.507C16.1851 138.287 144.066 10.3774 301.192 10.3774C377.453 10.4119 449.028 40.1077 502.843 94.0043C556.669 147.901 586.294 219.54 586.263 295.73C586.198 452.953 458.309 580.874 301.203 580.874C301.192 580.874 301.211 580.874 301.203 580.874H301.076C253.368 580.859 206.49 568.876 164.855 546.171L13.7327 585.82V585.82Z" fill="url(#paint0_linear_163_109)"/>
<path fill-rule="evenodd" clip-rule="evenodd" d="M227.437 171.936C221.91 159.641 216.091 159.395 210.833 159.18C206.532 158.995 201.609 159.007 196.693 159.007C191.774 159.007 183.78 160.857 177.019 168.244C170.255 175.632 151.192 193.49 151.192 229.812C151.192 266.138 177.634 301.237 181.32 306.167C185.009 311.089 232.364 388.009 307.36 417.601C369.688 442.194 382.372 437.302 395.9 436.072C409.429 434.841 439.553 418.217 445.703 400.976C451.852 383.74 451.852 368.966 450.007 365.877C448.163 362.801 443.243 360.955 435.864 357.263C428.484 353.571 392.211 335.709 385.446 333.247C378.682 330.786 373.762 329.556 368.843 336.947C363.923 344.331 349.791 360.955 345.486 365.877C341.182 370.811 336.877 371.426 329.498 367.735C322.119 364.031 298.355 356.244 270.164 331.093C248.229 311.527 233.421 287.361 229.116 279.97C224.811 272.586 228.655 268.587 232.356 264.906C235.669 261.599 239.735 256.288 243.425 251.977C247.107 247.666 248.337 244.59 250.797 239.667C253.256 234.737 252.026 230.427 250.182 226.735C248.337 223.043 233.997 186.534 227.437 171.936V171.936Z" fill="#E2E8F0"/>
<path d="M510.126 86.6788C454.37 30.8521 380.231 0.0911013 301.241 0.0561523C138.47 0.0561523 6.00752 132.553 5.94209 295.411C5.9229 347.469 19.5171 398.285 45.356 443.079L3.46313 596.134L160.004 555.062C203.135 578.597 251.696 591 301.115 591.019H301.24H301.241C463.986 591.019 596.468 458.499 596.537 295.649C596.564 216.722 565.874 142.509 510.126 86.6788V86.6788ZM301.241 541.134H301.146C257.096 541.111 213.9 529.278 176.224 506.908L167.257 501.589L74.3621 525.959L99.1635 435.368L93.3215 426.081C68.7509 386.99 55.7795 341.816 55.7987 295.43C55.8523 160.069 165.95 49.9455 301.334 49.9455C366.895 49.9726 428.512 75.5419 474.855 121.943C521.195 168.345 546.696 230.028 546.677 295.631C546.619 430.996 436.517 541.134 301.241 541.134Z" fill="#E2E8F0"/>
</g>
<defs>
<linearGradient id="paint0_linear_163_109" x1="299.998" y1="585.82" x2="299.998" y2="10.3784" gradientUnits="userSpaceOnUse">
<stop stop-color="#1E293B"/>
<stop offset="1" stop-color="#64748B"/>
</linearGradient>
<clipPath id="clip0_163_109">
<rect width="600" height="603" fill="white"/>
</clipPath>
</defs>
</svg>
